<svg version="1.1" id="Layer_1" xmlns:x="ns_extend;" xmlns:i="ns_ai;" xmlns:graph="ns_graphs;" xmlns="http://www.w3.org/2000/svg" xmlns:xlink="http://www.w3.org/1999/xlink" x="0px" y="0px" viewBox="0 0 640.7 75" style="enable-background:new 0 0 640.7 75;" xml:space="preserve">
 <style type="text/css">
  .st0{fill:#00C3A5;}
	.st1{fill:#ABABAB;}
 </style>
 <metadata>
  <sfw xmlns="ns_sfw;">
   <slices>
   </slices>
   <sliceSourceBounds bottomLeftOrigin="true" height="75" width="640.7" x="2921.4" y="-86.2">
   </sliceSourceBounds>
  </sfw>
 </metadata>
 <g>
  <path class="st0" d="M421.2,25.2h7.1l0.6,5.8h0.1c1.8-2.7,6.2-6,11.4-6.3v7.6c-7.5,1.5-10.9,6.4-10.9,11v18h-8.2V25.2z M383.5,43.3
		v-0.1c0-11.1,5.4-19,16.5-19c10.3,0,15.1,6,15.1,18.5c0,1.3-0.1,3.2-0.2,4.5h-22.8c0.6,5.1,3.5,8.1,9.6,8.1c3.8,0,7.4-0.4,10.8-0.8
		v6.9c-3.8,0.6-6.9,0.9-11,0.9C389.6,62.2,383.5,56.3,383.5,43.3L383.5,43.3z M391.9,41h14.8c0-5.6-1.5-10.1-7-10.1
		C394,30.9,392.1,35.7,391.9,41z M345.9,25.2h7.1c0,0,0.3,3.6,0.5,4.9h0.1c2-3.1,6.1-5.9,11.2-5.9c8.5,0,12.7,4.5,12.7,13.7v23.4
		h-8.2V39.5c0-5.8-2.3-8.1-6.7-7.8c-4,0.3-8.5,4.9-8.5,10.6v18.9h-8.2V25.2z M307.2,25.2h7.1c0,0,0.3,3.6,0.5,4.9h0.1
		c2-3.1,6.1-5.9,11.2-5.9c8.5,0,12.7,4.5,12.7,13.7v23.4h-8.2V39.5c0-5.8-2.3-8.1-6.7-7.8c-4,0.3-8.5,4.9-8.5,10.6v18.9h-8.2V25.2z
		 M274.9,24.5c3.6-0.3,7.4-0.4,11.2-0.4c8.8,0,14,3.4,14,13v24h-7.4l-0.4-3.6h-0.1c-2.5,2.7-6.2,4.3-10.9,4.3c-6.2,0-11.2-4-11.2-12
		c0-7.4,6.2-14.4,21.7-11.1v-2.2c0-4.3-2.5-5.5-7.5-5.5c-3,0-5.6,0.2-9.5,0.5V24.5z M291.9,44.5c-6.6-1.7-13.2,0.4-13.2,5.5
		c0,3.4,2.2,5.4,5.6,5.2c2.6-0.1,5.5-1.3,7.6-3.1L291.9,44.5L291.9,44.5z M264,10.8v50.4h-8.2V11.7L264,10.8z M216.9,25.2h6.9
		l0.4,3.9h0.1c2.4-2.9,6.4-5,11.1-5c9.2,0,14.2,6.9,14.2,18.5V43c0,11.2-4.9,19.3-15.3,19.3c-3.6,0-7.2-1.4-9.3-3V75h-8.2V25.2z
		 M225.1,35.7v16.6c1.7,1.3,4.4,2.5,7.1,2.5c6.9,0,8.9-5.4,8.9-11.7c0-5.8-1.1-11.3-7.8-11.3C230,31.7,226.9,33.6,225.1,35.7
		L225.1,35.7z M191.8,43.2c0,7.9,3.4,12.1,10.2,12.1c2.9,0,5.8-0.4,8.4-0.7v6.6c-2.2,0.4-5.8,0.9-9.5,0.9
		c-10.1,0-17.7-5.6-17.7-18.9c0-13.3,7.6-18.9,17.7-18.9c3.7,0,7.3,0.5,9.5,0.9v6.6c-2.6-0.4-5.6-0.7-8.4-0.7
		C195.3,31.1,191.9,35.3,191.8,43.2z M144.2,43.3V43c0-12,5.5-18.9,17-18.9c11.4,0,16.9,6.9,16.9,18.9v0.4c0,12-5.5,18.9-16.9,18.9
		C149.8,62.2,144.2,55.4,144.2,43.3L144.2,43.3z M161.2,30.9c-5.8,0-8.5,3.9-8.5,12.2s2.7,12.1,8.5,12.1c5.8,0,8.4-3.9,8.4-12.1
		S167,30.9,161.2,30.9z M100.7,61.2V10.8h12.6c17.6,0,25.8,5.3,25.8,25.2s-8.2,25.2-25.8,25.2H100.7z M129.8,36
		c0-11.3-2.3-17-14.4-17h-5.6V53h5.6C127.5,53,129.8,47.3,129.8,36z M41.9,58.1c1.8-4.5,6.9-10.7,12.2-13.9l11.6,19.1l-11.8,8.6
		L41.9,58.1L41.9,58.1z M24.8,71.9L8.5,61.4C20.9,38.4,43.9,22,71,18.9l4.5,14C53.2,37.3,34.6,52,24.8,71.9z M28.4,24.5L30.4,0h14.6
		l1.9,22.1c-8.4,2.9-13.3,5.2-19,8.7c-4.2,2.6-8,5.6-11.4,9L0,32.8l4.5-13.9L28.4,24.5z">
  </path>
  <path class="st1" d="M510.3,25.2h7.1l0.6,5.8h0.1c1.8-2.7,6.2-6,11.4-6.3v7.6c-7.5,1.5-10.9,6.4-10.9,11v18h-8.2V25.2z M626.5,24.1
		c-4.6,0-8.7,2.1-11.1,5h-0.1l-0.4-3.9h-6.9V75h8.2V59.2c2.1,1.6,5.7,3,9.3,3c10.3,0,15.3-8,15.3-19.3v-0.4
		C640.7,31,635.7,24.1,626.5,24.1L626.5,24.1z M623.2,54.8c-2.7,0-5.4-1.2-7.1-2.5V35.7c1.8-2.1,4.9-4,8.2-4c6.7,0,7.8,5.6,7.8,11.3
		C632.1,49.4,630.1,54.8,623.2,54.8L623.2,54.8z M548.8,24.1c-11.4,0-17,6.9-17,18.9v0.4c0,12,5.5,18.9,17,18.9
		c11.4,0,16.9-6.9,16.9-18.9V43C565.7,31,560.2,24.1,548.8,24.1L548.8,24.1z M548.8,55.2c-5.8,0-8.5-3.9-8.5-12.1s2.7-12.2,8.5-12.2
		c5.8,0,8.4,3.9,8.4,12.2S554.6,55.2,548.8,55.2z M493.7,54V41.5h-8.1V34h16.7v26.8c-3.1,0.6-10.4,1.4-15.6,1.4
		c-15.3,0-24.6-8.7-24.6-26.3c0-17.5,9.4-26.3,24.6-26.3c5.3,0,12.1,0.8,14.9,1.3v7.8c-3.7-0.4-10.2-1-14.2-1
		c-10.6,0-16.1,6.7-16.2,18.2c0,11.5,5.6,18.2,16.2,18.2C489,54.2,491.9,54.1,493.7,54L493.7,54z M586.6,55.2c4.3,0,7.1-1.5,7.1-9.3
		V25.2h8.2l0,19.4c0,12.4-4.4,17.6-15.3,17.6c-10.8,0-15.3-5.2-15.3-17.6l0-19.4h8.2v20.7C579.6,53.7,582.4,55.2,586.6,55.2z">
  </path>
 </g>
</svg>